<svg xmlns="http://www.w3.org/2000/svg" xmlns:xlink="http://www.w3.org/1999/xlink" id="esJq9wBPSvY1" shape-rendering="geometricPrecision" text-rendering="geometricPrecision" project-id="2cb6f986906c4e2ab727bbf7d470bfad" export-id="7f6b8ae162a645eda8d45f2b420c7480" cached="false" viewBox="9.1 -0.05 5.8 24.1"><path d="M5.39271,20.0756c.69216.6921,1.03824,1.0382,1.46829,1.0382s.77613-.3461,1.46828-1.0382c.20273-.2028.53142-.2028.73415,0l.73414.7341c.68613.6862,1.02923,1.0292,1.43233,1.1372.264.0708.542.0708.8061,0c.4031-.108.7461-.451,1.4323-1.1372s1.0292-1.0292,1.1372-1.4323c.0708-.264.0708-.5421,0-.8061-.108-.4031-.4511-.7462-1.1372-1.4323l-1.1012-1.1012l3.6707-3.6707m2.5695-8.44268c-.6922-.69215-1.0382-1.03823-1.4683-1.03823s-.7761.34608-1.4683,1.03823M21.1138,6.861c0,.43005-.3461.77613-1.0382,1.46828-.2028.20273-.2028.53142,0,.73415l.7341.73414c.6862.68613,1.0292,1.02923,1.1372,1.43233.0708.264.0708.542,0,.8061-.108.4031-.451.7461-1.1372,1.4323s-1.0292,1.0292-1.4323,1.1372c-.264.0708-.5421.0708-.8061,0-.4031-.108-.7462-.4511-1.4323-1.1372l-1.1012-1.1012M3.92443,15.6707c-.69216.6922-1.03824,1.0383-1.03824,1.4683m3.60774.3671L3.19028,14.2024c-.68614-.6861-1.02921-1.0292-1.13722-1.4323-.07075-.264-.07075-.542,0-.8061.10801-.4031.45108-.7461,1.13722-1.4323s1.02921-1.0292,1.43229-1.1372c.26405-.07076.54208-.07076.80614,0c.40308.108.74615.45107,1.43229,1.1372l1.10121,1.1012M17.5061,6.49393L14.2024,3.19028c-.6861-.68614-1.0292-1.02921-1.4323-1.13721-.264-.07076-.542-.07076-.8061,0-.4031.108-.7461.45107-1.4323,1.13721s-1.0292,1.02921-1.1372,1.43229c-.07076.26405-.07076.54208,0,.80614.108.40307.45107.74615,1.1372,1.43229l1.1012,1.10121L7.96221,11.6329m8.07559.7342l-2.2024-2.2025M7.96221,11.6329l2.20239,2.2025" transform="matrix(.107569-.107569 0.107569 0.107569 9.418336 12)" fill="none" stroke="#fff" stroke-width="1.5" stroke-linecap="round" stroke-linejoin="round"/><path d="M11.842058,10.420572v-10.420572" fill="none" stroke="#fff" stroke-width="0.1" stroke-linecap="round"/><path d="M12.157945,13.579428v10.420572" fill="none" stroke="#fff" stroke-width="0.1" stroke-linecap="round"/></svg>