<svg id="eRziWhG1joZ1" xmlns="http://www.w3.org/2000/svg" xmlns:xlink="http://www.w3.org/1999/xlink" viewBox="0 0 499 286" shape-rendering="geometricPrecision" text-rendering="geometricPrecision" project-id="b71bd0ee284c46658babbf2ee539eae5" export-id="fe7b23961a2e473cadc233bbf9cfc776" cached="false"><path d="M0,0c2.460072.916868,4.860541,1.913891,7.262207,2.974121.773599.338862,1.547197.677725,2.344238,1.026856c8.825683,4.159764,11.509931,10.772616,15.280762,19.410644.450527.982266.901055,1.964531,1.365234,2.976563c2.94953,6.721566,4.235221,12.580475,4.447266,19.898437.042297.786973.084595,1.573945.128174,2.384766.109445,2.269478.161422,4.530806.184326,6.802734.010151.806631.020303,1.613262.030762,2.444336-.04388,5.735837-1.043246,10.654866-2.718262,16.118164-1.506374,4.692871-1.506374,4.692871-.835937,9.445313c1.596049,1.83503,3.336759,3.256453,5.210937,4.804687c1.320514,1.643905,2.610648,3.312518,3.875,5c6.639029,8.286212,14.525325,15.837061,25.417969,17.503906c1.161445.122461,2.32289.244922,3.519531.371094c12.478209,1.50063,21.068949,8.337201,29.726563,16.867188c2.321237,2.438097,2.321237,2.438097,5.460937,3.257812-.092812-1.701562-.092812-1.701562-.1875-3.4375.122982-19.523346,7.526204-34.844558,21.1875-48.5625c9.494386-8.85562,21.279379-12.130812,33.5-15.5625c10.362355-3.061205,16.095478-8.63936,22.5-17.070312c6.998066-9.092185,6.998066-9.092185,12-10.367188c9.485339-.158569,16.365844,2.423747,24,8c20.082349,20.21381,25.379968,49.948942,25.315674,77.300293-.003175,2.826071.020427,5.651107.045654,8.477051.038588,10.840093-.17469,20.341293-5.861328,29.910156-2.181678,4.119521-3.030529,7.776222-3.75,12.375-3.299093,18.348886-16.259565,35.740345-30.75,46.9375-4.904025,3.187617-9.67958,5.011865-15.375,6.25-15.930425,3.627108-30.518242,12.315404-43.367676,22.110108-.683042.520539-1.366084,1.041079-2.069824,1.577392-.680464.518606-1.360928,1.037212-2.062012,1.571533-9.262988,6.970855-19.128541,12.692022-30.125488,16.490967-1.093125.4125-2.18625.825-3.3125,1.25-7.639348,1.553766-16.051152,2.262264-22.980469-1.851562-4.105735-3.363509-6.725294-7.854814-9.542968-12.285157-2.276219-3.274631-4.808117-6.160797-7.539063-9.050781-.982433-1.057979-1.964209-2.116569-2.945312-3.175781-.884297-.952617-1.768594-1.905235-2.679688-2.886719-7.597108-8.337086-13.586641-17.76497-19.4375-27.375-5.832106-9.492267-11.704635-18.862083-18.4375-27.75-3.526906-4.795477-6.485565-9.806264-9.375-15-.618508-1.110124-.618508-1.110124-1.249512-2.242676-10.500488-19.216106-10.500488-19.216106-10.500488-26.632324-.66,0-1.32,0-2,0-.088945.643242-.177891,1.286484-.269531,1.949219-.999518,4.174458-2.70543,7.936625-4.417969,11.863281-2.599389,6.057697-5.104131,12.123894-7.375,18.3125-4.54993,12.323049-9.161297,24.576183-15.9375,35.875-.354331.591035-.708662,1.18207-1.07373,1.791016-7.586063,12.57498-15.78332,24.665966-25.164551,35.982422-1.76352,2.132685-1.76352,2.132685-2.992188,4.265625-4.755494,7.725755-13.512241,12.648355-21.769531,15.960937-13.43181,2.811309-27.593741-3.242712-40-8-15.609809-5.938433-30.855288-11.344537-47.399414-13.916016-17.533321-2.760792-31.941658-8.223051-44.600586-21.083984-.623906-.625195-1.247812-1.250391-1.890625-1.894531-10.550074-11.286679-16.136181-25.289552-21.375-39.550781-4.582831-12.434748-11.013079-23.671361-18.070312-34.847657-7.449848-12.119118-4.49007-30.110373-1.566407-43.540283c5.789331-23.994363,20.296766-53.051914,40.980469-67.631592c6.016924-3.552008,11.519278-4.382638,18.316406-3.074218c14.04617,3.760391,23.970743,12.472191,31.605469,24.539062c12,21.33576,12,21.33576,12,30c1.27875-.061875,2.5575-.12375,3.875-.1875c12.398229.058299,21.063855,6.068059,29.75,14.375c11.052037,11.223771,16.663568,24.054271,17.375,39.8125.66,0,1.32,0,2,0c.20625-.825.4125-1.65.625-2.5c3.359772-8.552148,9.365931-14.160466,17.375-18.5c3.290441-1.35232,6.653613-2.494858,10.015869-3.654053c7.155836-2.565556,13.366243-6.575549,18.6521-12.084228c1.332031-1.261719,1.332031-1.261719,3.332031-1.261719.265547-.587812.531094-1.175625.804688-1.78125c1.219233-2.263152,2.598903-3.822706,4.320312-5.71875c3.264591-4.352787,3.792896-7.945922,3.546875-13.324219-1.024639-4.843205-3.345129-8.5757-6.042969-12.679687-3.169611-4.857031-3.050977-9.748304-3.378906-15.371094-.06832-.898476-.136641-1.796953-.207031-2.722656-.289428-5.024178-.384726-8.316137,2.957031-12.402344.33-.33.66-.66,1-1c.135777-3.337859.247967-6.669099.253906-10.009766.135296-3.891533.370577-5.612287,3.160157-8.419921.853359-.518204,1.706718-1.036407,2.585937-1.570313c3.141853-1.940556,3.909543-2.771703,5.3125-6.3125c1.777691-4.453682,4.469816-7.382669,8.6875-9.6875c2.598625-.535716,5.017305-.746784,7.667969-.796875c2.345207-.059898,2.345207-.059898,4.28125-1.179687C-12.087721,-2.316605,-5.481081,-1.699821,0,0ZM-11.300293,5.286621c4.05748,3.517542,8.297301,5.923349,13.0625,8.3125.707051.371895,1.414102.743789,2.142578,1.126953.686426.346114,1.372852.692227,2.080078,1.048828.926313.472401.926313.472401,1.871338.954346c2.28337.690363,3.613683.307217,5.843506-.442627-.946448-2.31501-1.563734-3.717296-3.692383-5.09668-.663545-.272314-1.32709-.544628-2.010742-.825195-.733477-.30293-1.466953-.605859-2.222656-.917969-.766992-.300351-1.533985-.600703-2.324219-.910156-.751523-.31582-1.503047-.631641-2.277344-.957031-4.31316-1.738813-7.741882-2.684689-12.472656-2.292969Zm-19.5625,5.6875c-1.547019,2.488683-2.11538,4.413421-2.4375,7.3125c1.330313.402188,1.330313.402188,2.6875.8125c3.3125,1.1875,3.3125,1.1875,5.59375,2.609375c3.093282,1.795526,6.14279,2.876176,9.53125,4.015625c5.329977,1.847353,10.190283,3.97135,15.1875,6.5625c2.975055.984101,3.666497,1.13185,6.6875-.0625c2.570942-1.789289,2.570942-1.789289,3.1875-4.9375.305192-3.051836.305192-3.051836-.875-6-3.005982-1.335992-5.09148-2.14345-8.375-1.625-.53625.20625-1.0725.4125-1.625.625-.253945-.605859-.507891-1.211719-.769531-1.835937-2.602889-4.577779-7.862815-6.632197-12.605469-8.476563-8.412442-1.641972-8.412442-1.641972-16.1875,1Zm-11.4375,15.3125c-1.38125,2.7625-1.190793,4.947311-1,8c2.572761,2.572761,3.496616,2.162975,7.0625,2.1875c8.692536.564858,16.09677,4.29535,23.9375,7.8125c5.929657,2.616915,10.459747,4.568718,17,4c.409109-5.885513.409109-5.885513-2-11-4.334125-1.970057-7.992197-.224698-12.207031,1.308594-.59168.228164-1.18336.456328-1.792969.691406.33-2.31.66-4.62,1-7-5.101426-2.2673-10.252862-4.162971-15.546875-5.9375-2.468259-1.069055-3.642864-2.134062-5.453125-4.0625-4.715605-.892141-7.343765,1.174727-11,4Zm59,6c-2.957367,4.960745-4.209941,8.447254-4.4375,14.25-.15625,3.132813-.15625,3.132813-.5625,5.75-2.4375,2.125-2.4375,2.125-5,4-.621908,2.079568-.621908,2.079568-.9375,4.5-1.421166,9.005144-6.406574,19.122086-13.0625,25.5-3.685204,1.746856-6.904715,2.341877-10.957031,2.632813-1.111817.083789-2.223633.167578-3.369141.253906-1.150488.078633-2.300976.157265-3.486328.238281-1.169824.086367-2.339648.172734-3.544922.261719-2.880417.211622-5.761163.415789-8.642578.613281-.181758.614883-.363516,1.229766-.550781,1.863281-.251367.808243-.502735,1.616485-.761719,2.449219-.243633.800508-.487266,1.601016-.738281,2.425781-.99709,2.375781-2.112892,3.507692-3.949219,5.261719c0,.66,0,1.32,0,2-.66,0-1.32,0-2,0-1.776717,1.679598-1.776717,1.679598-3.5625,3.8125-.620039.707695-1.240078,1.415391-1.878906,2.144531-1.742842,2.055704-1.742842,2.055704-2.558594,5.042969c3.454837-1.520128,6.314955-3.626146,9.316406-5.878906c1.683594-1.121094,1.683594-1.121094,4.683594-2.121094-4.494357,10.205009-14.244238,17.067516-24,22-3.544269,1.181423-6.515226,1.109382-10.25,1.1875-4.743263.194712-8.351655.517981-12,3.8125-.479531.53625-.959062,1.0725-1.453125,1.625-1.296875,1.375-1.296875,1.375-4.296875,2.375-.33-.99-.66-1.98-1-3-3.777426,7.084442-3.777426,7.084442-5.0625,14.875c1.425096,4.191457,3.285151,6.837954,6.875,9.4375c5.753334,1.808191,9.346211.85392,14.6875-1.6875c6.445672-3.402335,12.442694-7.433112,18.445313-11.550781c3.054687-2.074219,3.054687-2.074219,5.054687-3.074219-.309375.763125-.61875,1.52625-.9375,2.3125-.741436,1.875397-1.424782,3.774347-2.0625,5.6875-1.813965,1.017334-1.813965,1.017334-4,2-15.285913,10.026471-30.885357,21.169629-39,38-.372539.752813-.745078,1.505625-1.128906,2.28125-4.013548,9.360008-4.183187,19.678382-4.871094,29.71875-3-2-3-2-3.6875-4.625-.103125-.78375-.20625-1.5675-.3125-2.375-.66,1.32-1.32,2.64-2,4-.99,0-1.98,0-3,0-.009346-.781252-.018691-1.562505-.02832-2.367432-.053933-3.565646-.137538-7.130012-.22168-10.695068-.01418-1.229121-.028359-2.458242-.042969-3.724609-.188346-6.987629-.491483-11.573075-4.707031-17.212891-.432319-.584509-.864639-1.169018-1.310059-1.77124-1.382689-1.83601-2.807903-3.62862-4.252441-5.41626-.959964-1.201561-1.919608-2.403377-2.878906-3.605469-.665398-.830236-.665398-.830236-1.344238-1.677246-1.441785-1.816288-2.838622-3.663048-4.214356-5.529785.796641-.170156,1.593281-.340312,2.414063-.515625c9.977863-2.219834,9.977863-2.219834,17.398437-8.859375c3.772218-8.338588,2.936272-19.070731.1875-27.625-5.954465-14.805056-14.273195-27.380906-29-34.4375-5.543917-1.039484-10.752678-.678082-15.5625,2.4375-.804375.66-1.60875,1.32-2.4375,2c0,.33,0,.66,0,1c.808242.097969,1.616484.195938,2.449219.296875c10.979213,1.536295,10.979213,1.536295,14.550781,5.703125c1.3125,2.75,1.3125,2.75,2,5-.99.495-.99.495-2,1-.66-.33-1.32-.66-2-1-6.525386-.783046-9.916066,1.35283-15,5-3.435205,2.290137-4.985331,2.17843-9,2c.712098,7.477032,4.365562,11.757021,9.933594,16.375c1.514838,1.191253,3.05216,2.354063,4.601562,3.5c8.79593,6.632572,11.506795,12.469996,13.464844,23.125-2.667025-.936489-5.333624-1.874166-8-2.8125-1.115684-.391553-1.115684-.391553-2.253906-.791016-1.504127-.529714-3.006729-1.063773-4.507813-1.60205-1.476049-.523895-2.957883-1.031807-4.445312-1.522461-6.832576-2.340379-9.716858-5.556554-12.917969-12.084473-.497578-.996445-.995156-1.992891-1.507812-3.019531-2.675137-6.198674-3.849907-12.481965-4.867188-19.105469-.699964-4.53438-1.439843-8.997443-2.59375-13.441406-.982634-3.926301-1.180556-5.798177.09375-9.621094c2.588667-4.053512,5.544692-7.658489,9-11-.730898-.534961-1.461797-1.069922-2.214844-1.621094-10.12871-8.651311-15.285294-20.853484-16.597656-33.816406-.46232-4.579591-.46232-4.579591-2.722656-8.410156-2.022203-1.3888-2.022203-1.3888-5.464844-2.152344-2.424343.582552-2.424343.582552-4,2c0,.66,0,1.32,0,2-3.269542-.563714-4.825759-1.499623-7-4-1.12178,2.243561-1.222026,3.732956-1.394531,6.226563-.678024,8.795361-1.441756,17.437257-3.542969,26.023437-.157668.672407-.315337,1.344815-.477783,2.037598-.487061,1.853027-.487061,1.853027-1.584717,4.712402-1.485.495-1.485.495-3,1-.101836-.858516-.203672-1.717031-.308594-2.601562-.74938-3.683395-2.017638-6.44867-3.753906-9.773438-.547852-1.059609-1.095703-2.119219-1.660156-3.210937-.421524-.796641-.843047-1.593282-1.277344-2.414063-.99,0-1.98,0-3,0c.99,9.24,1.98,18.48,3,28-1.32-.66-2.64-1.32-4-2-.33.99-.66,1.98-1,3-.99,0-1.98,0-3,0-1.6875-2-1.6875-2-3-4-2.582689,2.191372-3.850313,4.073717-4.394531,7.441406.078102,11.481033,7.645588,20.798376,14.394531,29.558594c0-1.65,0-3.3,0-5c4.282733,3.778882,6.927903,7.946552,9.765625,12.890625c1.065391,2.024777,1.065391,2.024777,2.234375,3.109375c1.851747.157863,3.709091.251074,5.566406.316406c1.124707.041895,2.249414.083789,3.408203.126953c1.184004.039317,2.368008.078633,3.587891.119141c1.187871.043184,2.375742.086367,3.599609.130859c2.945839.106477,5.891765.20849,8.837891.306641-1.612687,2.712246-3.249019,5.373528-5,8-.257865,2.512687-.379611,4.860233-.375,7.375-.001289.730818-.002578,1.461636-.003906,2.2146.177354,9.642645,2.300754,19.026935,4.378906,28.4104.33,0,.66,0,1,0-.108281-1.761504-.108281-1.761504-.21875-3.558594-.634728-10.828842-.906238-21.595183-.78125-32.441406.99,0,1.98,0,3,0c.251367.518203.502734,1.036406.761719,1.570313c1.603917,3.147118,3.316612,6.228251,5.050781,9.304687.330645.599414.661289,1.198828,1.001953,1.816406c2.967841,5.25211,6.088963,9.910872,11.185547,13.308594c4.038678.273156,4.038678.273156,7.863281-.824219c2.136719-.175781,2.136719-.175781,4.652344,1.886719.923383.96793,1.834229,1.947924,2.734375,2.9375.975911,1.025301,1.953785,2.048737,2.933594,3.070313.478081.503056.956162,1.006113,1.44873,1.524414c2.932711,3.013331,6.149077,5.705576,9.367676,8.405273.601992.506602,1.203984,1.013203,1.824219,1.535156c1.387087,1.160756,2.780605,2.313824,4.175781,3.464844.268125-.804375.53625-1.60875.8125-2.4375.391875-.845625.78375-1.69125,1.1875-2.5625.99-.33,1.98-.66,3-1c.097969,1.122774.195938,2.245547.296875,3.402344c1.16035,12.09385,2.941975,22.316604,12.703125,30.597656c12.605879,7.559158,27.395348,4.974202,41,2c4.403529-1.118099,8.717043-2.485202,13-4-6.20471,12.94896-19.305231,20.055959-32.3125,24.875-4.564061,1.600867-8.88371,2.552685-13.6875,3.125c2.957147,2.957147,5.610906,3.173541,9.625,3.25c10.843414-.141847,19.303648-5.388727,27.375-12.25c3.172211-3.525332,6.067447-7.273987,9-11c.638086-.808967.638086-.808967,1.289063-1.634277c8.117965-9.706191,8.117965-9.706191,14.710937-20.365723-.33-.99-.66-1.98-1-3-1.392187,1.206563-1.392187,1.206563-2.8125,2.4375-2.18029,1.889585-3.360874,2.620292-6.1875,3.5625c2.540957-6.876101,6.533817-12.639379,10.625-18.6875.722036-1.074917,1.444072-2.149834,2.187988-3.257324c4.220596-6.249747,8.524636-12.383509,13.124512-18.359863c3.709401-4.847513,7.224759-9.833607,10.740234-14.822754.898876-1.272964,1.801357-2.543388,2.707032-3.811524c8.774133-12.296529,15.609547-24.982922,22.294922-38.518066c1.573445-3.030512,3.32307-5.777557,5.320312-8.542969-.33-.66-.66-1.32-1-2-.288037-2.928376-.486932-5.150341,0-8c2.125-2.5,2.125-2.5,5-5c7.845372-8.543652,11.71402-19.482807,12-31-1.98.495-1.98.495-4,1c.439692-2.989908,1.002435-5.00409,2.5625-7.625c2.040053-4.78969,1.68419-9.240195,1.4375-14.375-3.894591-.210818-3.894591-.210818-7,1c0-2.31,0-4.62,0-7-.33,0-.66,0-1,0Zm-62,10c0,1.65,0,3.3,0,5c.721875-.268125,1.44375-.53625,2.1875-.8125.928125-.061875,1.85625-.12375,2.8125-.1875c1.155697,1.121706,2.298585,2.260805,3.359375,3.472656c2.883884,2.684759,6.452603,4.234119,9.925781,6.042969c2.343055,1.281095,4.404113,2.626584,6.527344,4.234375c5.693988,4.019286,10.401276,4.687821,17.1875,4.25c2.405579-.86266,2.405579-.86266,4-2-.444419-4.104371-.444419-4.104371-2.125-7.8125-2.89566-1.833918-5.489679-2.009325-8.875-2.1875-2.3715.805798-2.3715.805798-4,2c.33-1.32.66-2.64,1-4-10.881853-7.096172-19.05899-9.140456-32-8Zm232,5c-4.918116,7.832555-6.331272,17.059294-4.324219,26.015625.724937,2.679863,1.492546,5.335894,2.324219,7.984375.66,0,1.32,0,2,0c.33-.66.66-1.32,1-2c.99,0,1.98,0,3,0c1.570313,1.75,1.570313,1.75,3.125,4c.939744,1.3465,1.893562,2.683581,2.875,4c.33,0,.66,0,1,0c.33-3.63.66-7.26,1-11c5.674502,1.1349,5.674502,1.1349,7.75,4.1875.407344.571055.814688,1.142109,1.234375,1.730469c2.094465,4.293652,2.154525,9.162304,2.332031,13.871094.063205,1.64573.063205,1.64573.127686,3.324707.039075,1.158706.078149,2.317412.118408,3.51123.041008,1.196089.082017,2.392178.124268,3.624512.235105,7.290714.437983,14.581096.500732,21.875488.012971.772954.025942,1.545908.039307,2.342285.008871,5.39723-.86974,10.315118-2.226807,15.532715c5.727063,5.491007,5.727063,5.491007,13.0625,7.4375c1.454063-.216562,1.454063-.216562,2.9375-.4375.33-1.65.66-3.3,1-5c1.32,0,2.64,0,4,0c3.987225-6.930177,3.464488-14.138778,3.375-21.9375-.003988-.695691-.007976-1.391382-.012085-2.108154-.069376-10.28069-.693188-19.959983-3.362915-29.954346-.301641-1.273594-.603281-2.547187-.914062-3.859375-3.795702-15.684458-10.396138-34.308426-24.902344-43.261719-5.965244-2.789118-11.887338-4.439571-17.183594.121094Zm-231,8c-.66.66-1.32,1.32-2,2c.141336,4.310756.433514,7.002984,2.5625,10.75c3.150393,2.908055,6.5297,4.552194,10.4375,6.25-.020625,1.11375-.04125,2.2275-.0625,3.375-.201307,3.457159-.201307,3.457159,1.0625,5.625c1.65-.33,3.3-.66,5-1c.33-2.31.66-4.62,1-7c3,1,3,1,4.5625,3c3.638825,2.985703,7.796072,3.242583,12.4375,3c2.348864-1.940749,2.348864-1.940749,2.4375-5.4375-.046606-3.59342-.046606-3.59342-2.375-5.3125-2.405573-.981867-4.709733-1.752666-7.1875-2.5-4.95802-1.559178-8.913864-4.180279-13.226562-7.03125-4.75842-3.08806-8.845512-5.71875-14.648438-5.71875Zm164,36c-6.754186,7.647198-12.165505,16.772652-12.25,27.25.0825.9075.165,1.815.25,2.75c1.081961-2.110311,2.089995-4.214523,3.007813-6.402344c2.814278-6.386248,5.663646-9.613977,11.992187-12.597656-.556875,1.11375-1.11375,2.2275-1.6875,3.375-.359648.734766-.719297,1.469531-1.089844,2.226563-.817811,1.604268-1.686196,3.183698-2.601562,4.734375-3.780766,6.656732-4.207046,12.085744-3.621094,19.664062.99,0,1.98,0,3,0c0,1.65,0,3.3,0,5c.99-.66,1.98-1.32,3-2c0-.66,0-1.32,0-2c1.216875.0825,2.43375.165,3.6875.25c4.345907.022954,6.06427-1.352929,9.3125-4.25c2.8125-.75,2.8125-.75,5-1c.33-1.98.66-3.96,1-6c1.258125.103125,2.51625.20625,3.8125.3125c2.178913.083316,2.178913.083316,4.1875-.3125c2.082169-2.354996,2.082169-2.354996,3-5c4.75.75,4.75.75,7,3c3.097294-3.097294,3.152065-6.247752,3.1875-10.5-.04231-4.837399-.802018-9.370359-1.675781-14.117187-.970788-6.417577-1.199336-12.904969-1.511719-19.382813-14.499147-.392718-26.141479,5.687733-37,15Zm-97-2c-.229601,6.566585.435787,12.118728,2.1875,18.4375.228486.835474.456973,1.670947.692383,2.531738c3.940818,13.895856,12.023832,25.274036,21.124023,36.347168.996094,1.683594.996094,1.683594.996094,5.683594-4.359688-2.595052-7.242236-5.295652-10.4375-9.214844-1.557324-1.779242-3.172951-3.225944-5-4.722656-3.263264-2.689504-5.922289-5.666323-8.59375-8.9375-2.760644-2.979743-5.849797-5.529477-8.96875-8.125c2.369476,16.021499,2.369476,16.021499,7.71875,31.214844c1.480876,3.219098,2.588674,6.490027,3.71875,9.847656c6.754623,19.009141,18.751475,31.47301,36.679932,40.291504c4.858925,2.295654,9.483746,4.158151,14.882568,4.645996.683203.06832,1.366406.136641,2.070313.207031c4.99425.256359,8.636832-.696116,12.929687-3.207031c3.699029-3.973788,3.699029-3.973788,5-9c.66,0,1.32,0,2,0c1.212609,3.637826,1.395446,6.17736,1,10-2.375,2.6875-2.375,2.6875-5,5-1.605099,1.870648-1.605099,1.870648-2,4c1.281846,2.748322,1.281846,2.748322,3,5c1.918125-.402187,1.918125-.402187,3.875-.8125.719297-.15082,1.438594-.301641,2.179688-.457031c2.315778-.653557,2.315778-.653557,3.945312-3.730469.559453.158555,1.118906.317109,1.695313.480469c5.398578,1.216967,10.532841,1.37138,15.554687-1.042969c6.304921-5.588453,9.848246-11.162849,13.355469-18.863281c1.394531-2.574219,1.394531-2.574219,4.394531-4.574219.574468,21.531915.574468,21.531915-3,32c3.839497-2.043921,3.839497-2.043921,6.3125-5.5.820078-2.549968.820078-2.549968.6875-5.5.678047-.170156,1.356094-.340312,2.054688-.515625c2.997102-.780409,5.971332-1.620109,8.945312-2.484375.871406-.243633,1.742813-.487266,2.640625-.738281c10.010483-3.321088,15.584155-11.058273,20.234375-20.199219c2.773143-5.874431,4.764822-11.715005,6.125-18.0625-.99.495-.99.495-2,1c0,.99,0,1.98,0,3-1.32.33-2.64.66-4,1-.026892-1.479069-.046346-2.958275-.0625-4.4375-.011602-.823711-.023203-1.647422-.035156-2.496094.097656-2.066406.097656-2.066406,1.097656-3.066406.040808-1.999584.042544-4.000452,0-6-4.304538,4.171971-8.107613,8.630653-11.894531,13.271484-2.779843,3.347558-5.584443,6.11964-9.105469,8.728516c1.046512-5.824663,2.646587-10.850229,5.292969-16.152344.23332-.609726.46664-1.219453.707031-1.847656-.33-.66-.66-1.32-1-2-.540601.345711-1.081201.691421-1.638184,1.047608-7.742723,4.448301-15.277184,4.922099-23.986816,5.264892-1.399845.071533-2.799588.145087-4.199219.220703-3.391465.175421-6.782556.330494-10.175781.466797c3.445364,3.445364,8.518757,2.359104,13.203125,2.460938c4.300914.610623,6.447427,1.825711,9.796875,4.539062c1.875,2.75,1.875,2.75,3,5-.66-.33-1.32-.66-2-1-4.197217-.419722-7.004383-.188445-10.625,1.875-4.626388,2.590414-9.303845,2.990964-14.519531,3.535156-3.145081.649668-4.042798.996331-5.855469,3.589844-.898223,1.97171-1.726202,3.976221-2.5,6-2.471831,6.464789-2.471831,6.464789-5.5,9-1.715514-1.715514-1.167656-3.924118-1.239502-6.218506-.444697-13.517912-2.659159-27.578815-8.760498-39.781494-.565898-1.131797-1.131797-2.263594-1.714844-3.429687-6.281689-12.007985-14.394022-19.81436-27.285156-24.570313-4.316778-.959284-8.598873-1.588282-13-2c.66-.99,1.32-1.98,2-3c6.870466-1.323996,12.814269.281341,19.003906,3.222656.658711.256524,1.317422.513047,1.996094.777344.66-.33,1.32-.66,2-1-4.306232-4.046258-7.789693-5.891767-13.625-7.0625-1.420011-.323592-2.839281-.65045-4.257812-.980469-1.044624-.238557-1.044624-.238557-2.110352-.481933-11.733157-2.777704-19.358737-7.030841-27.069336-16.240723-3.730762-4.302411-7.77825-8.346034-11.9375-12.234375-.33,0-.66,0-1,0Zm-78,26c-.33.66-.66,1.32-1,2c.99-.33,1.98-.66,3-1-.66-.33-1.32-.66-2-1Zm-114,3c1,2,1,2,1,2l-1-2Zm179,33c1.36001,4.470529,3.139472,8.399906,5.375,12.5.585234,1.082813,1.170469,2.165625,1.773438,3.28125c1.830621,3.182345,3.780731,6.190046,5.851562,9.21875.33-.66.66-1.32,1-2-.853466-2.238331-.853466-2.238331-2.203125-4.71875-.485977-.931992-.971953-1.863984-1.472656-2.824219-.519492-.97582-1.038985-1.95164-1.574219-2.957031-.504023-.97582-1.008047-1.951641-1.527344-2.957031-2.739428-5.511823-2.739428-5.511823-7.222656-9.542969Zm-217,10c1,2,1,2,1,2l-1-2Zm1,3c.33,1.98.66,3.96,1,6c.33-.99.66-1.98,1-3-.66-.99-1.32-1.98-2-3Zm428,2c-1.03016,2.621683-2.049384,5.246739-3.0625,7.875-.294551.746367-.589102,1.492734-.892578,2.261719-.740127,1.933037-1.398479,3.896931-2.044922,5.863281.33.66.66,1.32,1,2c3.89785-6.084098,5.655324-10.761798,6-18-.33,0-.66,0-1,0Zm-426,4c1,2,1,2,1,2l-1-2Zm-24,1c.378994,15.263117,8.11734,30.938705,18.624756,41.89502c7.91913,7.018063,18.481849,9.497192,28.500244,11.97998c11.587668,3.038619,22.201552,6.719134,32.875,12.125c1.096348.550833,1.096348.550833,2.214844,1.112793.743789.373989,1.487578.747979,2.253906,1.133301.729851.366738,1.459702.733476,2.21167,1.111328c1.374716.696409,2.745074,1.40152,4.109863,2.117187c3.387206,1.751804,6.418742,3.012707,10.209717,3.525391-3.714754-3.087497-7.603507-5.747871-11.6875-8.3125-7.682513-4.882996-15.309107-9.85134-22.3125-15.6875-.495.99-.495.99-1,2-.752812-.265547-1.505625-.531094-2.28125-.804687-6.332128-2.105587-11.863645-3.404518-18.53125-3.945313-10.658041-.974924-21.277974-6.016021-29.1875-13.25-4.096934-6.022843-6.335279-13.343968-8.826416-20.149414-1.851738-5.056459-3.904889-9.964165-6.173584-14.850586-.33,0-.66,0-1,0Zm204,0c-5.620788,11.112156-5.620788,11.112156-11.0625,22.3125-.605215,1.262637-.605215,1.262637-1.222656,2.550781-1.000809,2.280286-1.000809,2.280286.285156,5.136719c5.387417-9.800638,10.333534-19.40594,14-30-.66,0-1.32,0-2,0Zm-179,1c1,2,1,2,1,2l-1-2Zm1,2c.344449,2.472668.344449,2.472668,1,5c.66.33,1.32.66,2,1-.66-1.98-1.32-3.96-2-6-.33,0-.66,0-1,0Zm226,2c1,2,1,2,1,2l-1-2Zm-215,8c-.12375.61875-.2475,1.2375-.375,1.875-.625,2.125-.625,2.125-2.625,4.125c1.65,1.65,3.3,3.3,5,5-.33-3.63-.66-7.26-1-11-.33,0-.66,0-1,0Zm406,0c1,2,1,2,1,2l-1-2Zm-1,2c1,2,1,2,1,2l-1-2Zm-180,4c1,2,1,2,1,2l-1-2Zm2,3c1,2,1,2,1,2l-1-2Zm2,3c1,2,1,2,1,2l-1-2Zm1,2c.33.99.66,1.98,1,3c0-.99,0-1.98,0-3-.33,0-.66,0-1,0Zm-221,1c.50604,2.168743.999838,3.999676,2,6c.66,0,1.32,0,2,0c0,.66,0,1.32,0,2c11.450068,6.786732,11.450068,6.786732,24,11c.99-.33,1.98-.66,3-1-7.809222-4.99427-15.641693-9.461013-24.003906-13.457031-2.585015-1.331266-4.748958-2.713393-6.996094-4.542969Zm144,2c1,2,1,2,1,2l-1-2Zm80,1c1,2,1,2,1,2l-1-2Zm-81,1c1,2,1,2,1,2l-1-2Zm84,4c1,2,1,2,1,2l-1-2Zm147.4375.5625c-5.67975,1.963962-13.578381,4.719262-16.4375,10.4375c13.466226-2.568769,13.466226-2.568769,24-11-2.931013-1.465506-4.488706-.438544-7.5625.5625Zm-144.4375,4.4375c1,2,1,2,1,2l-1-2Zm2,3c1,2,1,2,1,2l-1-2Zm105.5,8.3125c-.75104.446419-1.50208.892837-2.275879,1.352783-19.85948,11.445671-19.85948,11.445671-38.794433,24.28003-4.788254,3.616815-8.234527,5.82442-14.324219,5.984375-2.183465-.015568-2.183465-.015568-4.492188.777343-3.714016.41637-5.472296-.951447-8.613281-2.894531-1.010625-.612305-2.02125-1.224609-3.0625-1.855469-2.781071-1.852814-5.366193-3.825304-7.9375-5.957031c1.840263,6.867323,3.89785,11.029478,9.8125,15.3125c9.842214,3.093267,21.034274-1.56251,29.859619-5.947266c6.336264-3.319112,11.975769-7.184635,17.554688-11.64624c6.651291-5.30004,13.848901-9.767895,21.445068-13.593994.59877-.305266,1.197539-.610532,1.814453-.925049c1.6673-.838958,3.347976-1.651177,5.029297-2.46167c2.719316-1.52799,2.719316-1.52799,3.34375-4.445312.046406-.75668.092813-1.51336.140625-2.292969-3.560099,0-6.508077,2.518212-9.5,4.3125Zm-97.5,3.6875c1,2,1,2,1,2l-1-2Zm11,11c.99,1.485.99,1.485,2,3c.66-.33,1.32-.66,2-1-.33-.66-.66-1.32-1-2-.99,0-1.98,0-3,0Z" transform="translate(260.3 11.7134)" fill="#fff"/><path d="M0,0c.99,0,1.98,0,3,0C4.413862,2.827724,4.243233,4.85697,4,8c-3.248356,7.339253-8.240304,13.854326-13.011719,20.265625C-12.23797,32.702512,-15.149724,37.315237,-18,42c-.598125.969375-1.19625,1.93875-1.8125,2.9375-1.165873,3.006726-1.534425,5.44195-1.9375,8.625C-23.497874,65.124258,-30.477594,74.381155,-38,83c-.781172.913945-1.562344,1.827891-2.367187,2.769531C-46.962078,93.326627,-46.962078,93.326627,-51,95c0,.66,0,1.32,0,2-6.064933,5.222946-13.402207,9.467402-21,12-.66-.33-1.32-.66-2-1c1.296989-7.056236,7.801237-11.826437,12.73584-16.646484C-53.443162,83.696343,-46.781019,75.953213,-42,66c-4.455.495-4.455.495-9,1c0-4.972258,1.851143-6.471776,5.125-9.8125c1.016467-1.069513,2.032098-2.139821,3.046875-3.210937.490488-.512725.980977-1.02545,1.486328-1.553711c1.636304-1.735149,3.186173-3.53166,4.716797-5.360352c2.974467-3.513747,6.201474-6.719824,9.550781-9.878906c6.287268-6.063919,11.594959-12.689223,16.868653-19.626221c1.083863-1.400155,2.218073-2.760988,3.35791-4.115967C-4.846913,10.797719,-3.567387,8.224809,-2.25,5.1875c.427969-.97582.855938-1.951641,1.296875-2.957031C-0.481328,1.126387,-0.481328,1.126387,0,0Z" transform="translate(243 127)" fill="#fff"/><path d="M0,0c.99.33,1.98.66,3,1c.852088,11.337504-3.277732,19.072828-10,28-1.558594,1.757813-1.558594,1.757813-3,3-.66,0-1.32,0-2,0c.414405-4.972857,1.546134-8.444946,3.890625-12.828125c1.616888-3.165457,2.866683-6.453904,4.160156-9.761719C-2.701463,6.241985,-1.357587,3.12245,0,0Z" transform="translate(270 81)" fill="#fff"/></svg>
